<svg xmlns="http://www.w3.org/2000/svg">
<symbol id="icon-favourite" viewBox="0 0 24 24">
<path d="M16.5 3C19.5376 3 22 5.5 22 9C22 16 14.5 20 12 21.5C9.5 20 2 16 2 9C2 5.5 4.5 3 7.5 3C9.35997 3 11 4 12 5C13 4 14.64 3 16.5 3ZM12.9339 18.6038C13.8155 18.0485 14.61 17.4955 15.3549 16.9029C18.3337 14.533 20 11.9435 20 9C20 6.64076 18.463 5 16.5 5C15.4241 5 14.2593 5.56911 13.4142 6.41421L12 7.82843L10.5858 6.41421C9.74068 5.56911 8.5759 5 7.5 5C5.55906 5 4 6.6565 4 9C4 11.9435 5.66627 14.533 8.64514 16.9029C9.39 17.4955 10.1845 18.0485 11.0661 18.6038C11.3646 18.7919 11.6611 18.9729 12 19.1752C12.3389 18.9729 12.6354 18.7919 12.9339 18.6038Z" fill="white" />
</symbol>
<symbol id="icon-favourite-active" viewBox="0 0 24 24">
<path d="M16.5 3C19.5376 3 22 5.5 22 9C22 16 14.5 20 12 21.5C9.5 20 2 16 2 9C2 5.5 4.5 3 7.5 3C9.35997 3 11 4 12 5C13 4 14.64 3 16.5 3Z" fill="#B4A9FF" />
</symbol>
<symbol id="icon-vk" viewBox="0 0 19 11">
<path fill-rule="evenodd" clip-rule="evenodd" d="M18.4865 1.37968C18.6253 0.985106 18.4865 0.698125 17.8719 0.698125H15.8298C15.3144 0.698125 15.0764 0.949207 14.9377 1.21829C14.9377 1.21829 13.8869 3.51408 12.4198 5.00273C11.9439 5.4332 11.7259 5.57669 11.4682 5.57669C11.3293 5.57669 11.1509 5.4332 11.1509 5.03862V1.36173C11.1509 0.895411 10.9923 0.680176 10.5561 0.680176H7.34436C7.02714 0.680176 6.8289 0.895411 6.8289 1.11065C6.8289 1.55907 7.56243 1.66666 7.64174 2.92217V5.64843C7.64174 6.24034 7.52281 6.34793 7.26505 6.34793C6.57115 6.34793 4.88596 4.03419 3.87484 1.39763C3.67655 0.877462 3.47831 0.680176 2.96286 0.680176H0.90093C0.306165 0.680176 0.207031 0.93131 0.207031 1.20034C0.207031 1.68461 0.90093 4.12389 3.43863 7.35236C5.12388 9.55846 7.52281 10.7422 9.68383 10.7422C10.9923 10.7422 11.1509 10.4732 11.1509 10.0248V8.3568C11.1509 7.81868 11.2699 7.72904 11.6862 7.72904C11.9836 7.72904 12.5189 7.87248 13.7283 8.9307C15.1161 10.1862 15.354 10.7602 16.1272 10.7602H18.1693C18.764 10.7602 19.0416 10.4911 18.883 9.97098C18.7046 9.45087 18.0305 8.69757 17.1582 7.80073C16.6823 7.29857 15.9686 6.74256 15.7505 6.47347C15.4531 6.1148 15.5324 5.97131 15.7505 5.64843C15.7307 5.64843 18.2287 2.45585 18.4865 1.37968Z" fill="currentColor" fill-opacity="0.8"/>
</symbol>
<symbol id="icon-youtube" viewBox="0 0 16 12">
<path fill-rule="evenodd" clip-rule="evenodd" d="M14.0013 1.04957C14.6622 1.23093 15.1827 1.7653 15.3593 2.4439C15.6803 3.67379 15.6803 6.23997 15.6803 6.23997C15.6803 6.23997 15.6803 8.80606 15.3593 10.036C15.1827 10.7146 14.6622 11.249 14.0013 11.4305C12.8035 11.76 8.00031 11.76 8.00031 11.76C8.00031 11.76 3.19708 11.76 1.99927 11.4305C1.33835 11.249 0.817854 10.7146 0.641214 10.036C0.320312 8.80606 0.320312 6.23997 0.320312 6.23997C0.320312 6.23997 0.320312 3.67379 0.641214 2.4439C0.817854 1.7653 1.33835 1.23093 1.99927 1.04957C3.19708 0.719971 8.00031 0.719971 8.00031 0.719971C8.00031 0.719971 12.8035 0.719971 14.0013 1.04957ZM6.56028 4.0802V8.88021L10.4003 6.4803L6.56028 4.0802Z" fill="currentColor" fill-opacity="0.8"/>
</symbol>
<symbol id="icon-ok" viewBox="0 0 12 19">
<path d="M7.91902 13.2623L10.5725 15.8239C11.116 16.3475 11.116 17.1979 10.5725 17.7221C10.0294 18.2462 9.14932 18.2462 8.60687 17.7221L5.99801 15.2049L3.39142 17.7221C3.11963 17.9839 2.76349 18.1149 2.40735 18.1149C2.05178 18.1149 1.69621 17.9839 1.42441 17.7221C0.881398 17.1979 0.881398 16.3481 1.42385 15.8239L4.07758 13.2623C3.1114 13.0498 2.17958 12.6803 1.32132 12.1605C0.671803 11.7652 0.476693 10.937 0.885942 10.3094C1.29406 9.68111 2.15232 9.49195 2.80297 9.88727C4.74612 11.0672 7.24933 11.0675 9.19362 9.88727C9.84428 9.49195 10.7023 9.68111 11.1112 10.3094C11.5205 10.9364 11.3248 11.7652 10.6753 12.1605C9.81701 12.6808 8.8852 13.0498 7.91902 13.2623Z" fill="currentColor" fill-opacity="0.8"/>
<path fill-rule="evenodd" clip-rule="evenodd" d="M1.24023 4.94199C1.24023 7.46797 3.36913 9.52269 5.98679 9.52269C8.60502 9.52269 10.7333 7.46797 10.7333 4.94199C10.7333 2.41519 8.60502 0.359924 5.98679 0.359924C3.36913 0.359924 1.24023 2.41519 1.24023 4.94199ZM7.95202 4.94151C7.95202 3.89537 7.07048 3.04469 5.98672 3.04469C4.90381 3.04469 4.02141 3.89537 4.02141 4.94151C4.02141 5.98682 4.90381 6.83805 5.98672 6.83805C7.07048 6.83805 7.95202 5.98682 7.95202 4.94151Z" fill="currentColor" fill-opacity="0.8"/>
</symbol>
<symbol id="icon-telegram" viewBox="0 0 17 15">
<path d="M0.600085 6.85883C2.28343 5.93159 4.16251 5.15771 5.91823 4.37987C8.93876 3.10583 11.9713 1.85387 15.0344 0.688307C15.6304 0.489707 16.7012 0.295487 16.8062 1.17869C16.7487 2.42885 16.5122 3.67169 16.35 4.91453C15.9382 7.64765 15.4623 10.3714 14.9982 13.0955C14.8383 14.0029 13.7016 14.4726 12.9742 13.892C11.2263 12.7113 9.46495 11.5421 7.73935 10.3341C7.17409 9.75971 7.69825 8.93489 8.20309 8.52473C9.64273 7.10597 11.1695 5.90057 12.5339 4.40849C12.9019 3.51971 11.8145 4.26875 11.4558 4.49825C9.48493 5.85641 7.56229 7.29749 5.48437 8.49113C4.42297 9.07541 3.18589 8.57609 2.12497 8.25005C1.17372 7.85621 -0.220212 7.45943 0.599989 6.85889L0.600085 6.85883Z" fill="currentColor" fill-opacity="0.8"/>
</symbol>
<symbol id="icon-email" viewBox="0 0 24 25">
<path d="M21 3.75C21.5523 3.75 22 4.19772 22 4.75V20.7566C22 21.3052 21.5447 21.75 21.0082 21.75H2.9918C2.44405 21.75 2 21.3051 2 20.7566V19.75H20V8.05L12 15.25L2 6.25V4.75C2 4.19772 2.44772 3.75 3 3.75H21ZM8 15.75V17.75H0V15.75H8ZM5 10.75V12.75H0V10.75H5ZM19.5659 5.75H4.43414L12 12.5593L19.5659 5.75Z" fill="currentColor" fill-opacity="currentColor"/>
</symbol>
<symbol id="icon-password" viewBox="0 0 24 25">
<path d="M12.917 13.75C12.441 16.5877 9.973 18.75 7 18.75C3.68629 18.75 1 16.0637 1 12.75C1 9.43629 3.68629 6.75 7 6.75C9.973 6.75 12.441 8.91229 12.917 11.75H23V13.75H21V17.75H19V13.75H17V17.75H15V13.75H12.917ZM7 16.75C9.20914 16.75 11 14.9591 11 12.75C11 10.5409 9.20914 8.75 7 8.75C4.79086 8.75 3 10.5409 3 12.75C3 14.9591 4.79086 16.75 7 16.75Z" fill="currentColor" fill-opacity="currentColor" />
</symbol>
<symbol id="icon-name" viewBox="0 0 24 25">
<path d="M4 22.75C4 18.3317 7.58172 14.75 12 14.75C16.4183 14.75 20 18.3317 20 22.75H18C18 19.4363 15.3137 16.75 12 16.75C8.68629 16.75 6 19.4363 6 22.75H4ZM12 13.75C8.685 13.75 6 11.065 6 7.75C6 4.435 8.685 1.75 12 1.75C15.315 1.75 18 4.435 18 7.75C18 11.065 15.315 13.75 12 13.75ZM12 11.75C14.21 11.75 16 9.96 16 7.75C16 5.54 14.21 3.75 12 3.75C9.79 3.75 8 5.54 8 7.75C8 9.96 9.79 11.75 12 11.75Z" fill="currentColor" fill-opacity="currentColor" />
</symbol>
<symbol id="icon-genres" viewBox="0 0 24 24">
<path d="M7 11.5C4.51472 11.5 2.5 9.48528 2.5 7C2.5 4.51472 4.51472 2.5 7 2.5C9.48528 2.5 11.5 4.51472 11.5 7C11.5 9.48528 9.48528 11.5 7 11.5ZM7 21.5C4.51472 21.5 2.5 19.4853 2.5 17C2.5 14.5147 4.51472 12.5 7 12.5C9.48528 12.5 11.5 14.5147 11.5 17C11.5 19.4853 9.48528 21.5 7 21.5ZM17 11.5C14.5147 11.5 12.5 9.48528 12.5 7C12.5 4.51472 14.5147 2.5 17 2.5C19.4853 2.5 21.5 4.51472 21.5 7C21.5 9.48528 19.4853 11.5 17 11.5ZM17 21.5C14.5147 21.5 12.5 19.4853 12.5 17C12.5 14.5147 14.5147 12.5 17 12.5C19.4853 12.5 21.5 14.5147 21.5 17C21.5 19.4853 19.4853 21.5 17 21.5ZM7 9.5C8.38071 9.5 9.5 8.38071 9.5 7C9.5 5.61929 8.38071 4.5 7 4.5C5.61929 4.5 4.5 5.61929 4.5 7C4.5 8.38071 5.61929 9.5 7 9.5ZM7 19.5C8.38071 19.5 9.5 18.3807 9.5 17C9.5 15.6193 8.38071 14.5 7 14.5C5.61929 14.5 4.5 15.6193 4.5 17C4.5 18.3807 5.61929 19.5 7 19.5ZM17 9.5C18.3807 9.5 19.5 8.38071 19.5 7C19.5 5.61929 18.3807 4.5 17 4.5C15.6193 4.5 14.5 5.61929 14.5 7C14.5 8.38071 15.6193 9.5 17 9.5ZM17 19.5C18.3807 19.5 19.5 18.3807 19.5 17C19.5 15.6193 18.3807 14.5 17 14.5C15.6193 14.5 14.5 15.6193 14.5 17C14.5 18.3807 15.6193 19.5 17 19.5Z" fill="CurrentColor" />
</symbol>
<symbol id="icon-enter" viewBox="0 0 24 24">
<path d="M4 22C4 17.5817 7.58172 14 12 14C16.4183 14 20 17.5817 20 22H18C18 18.6863 15.3137 16 12 16C8.68629 16 6 18.6863 6 22H4ZM12 13C8.685 13 6 10.315 6 7C6 3.685 8.685 1 12 1C15.315 1 18 3.685 18 7C18 10.315 15.315 13 12 13ZM12 11C14.21 11 16 9.21 16 7C16 4.79 14.21 3 12 3C9.79 3 8 4.79 8 7C8 9.21 9.79 11 12 11Z" fill="currentColor" />
</symbol>
<symbol id="icon-search" viewBox="0 0 24 24">
<path d="M18.031 16.6168L22.3137 20.8995L20.8995 22.3137L16.6168 18.031C15.0769 19.263 13.124 20 11 20C6.032 20 2 15.968 2 11C2 6.032 6.032 2 11 2C15.968 2 20 6.032 20 11C20 13.124 19.263 15.0769 18.031 16.6168ZM16.0247 15.8748C17.2475 14.6146 18 12.8956 18 11C18 7.1325 14.8675 4 11 4C7.1325 4 4 7.1325 4 11C4 14.8675 7.1325 18 11 18C12.8956 18 14.6146 17.2475 15.8748 16.0247L16.0247 15.8748Z" fill="currentColor" />
</symbol>
</svg>